<mxfile host="app.diagrams.net" modified="2024-08-28T20:55:08.773Z" agent="Mozilla/5.0 (Windows NT 10.0; Win64; x64) AppleWebKit/537.36 (KHTML, like Gecko) Chrome/127.0.0.0 Safari/537.36" version="24.6.4" etag="H7ANawFEwIGprOPp8TXh" type="github">
  <diagram name="Page-1" id="bR5e6HetqVIJMUXpdGSQ">
    <mxGraphModel>
      <root>
        <mxCell id="0" />
        <mxCell id="1" parent="0" />
      </root>
    </mxGraphModel>
  </diagram>
</mxfile>
